<mxfile host="Electron" modified="2023-12-09T01:09:05.502Z" agent="Mozilla/5.0 (Windows NT 10.0; Win64; x64) AppleWebKit/537.36 (KHTML, like Gecko) draw.io/22.1.2 Chrome/114.0.5735.289 Electron/25.9.4 Safari/537.36" etag="eL-MwABW_z3kQg_yfvbD" version="22.1.2" type="device">
  <diagram name="Page-1" id="YRFLMLcwG-B4jAh9hGQP">
    <mxGraphModel dx="1582" dy="1083" grid="1" gridSize="10" guides="1" tooltips="1" connect="1" arrows="1" fold="1" page="0" pageScale="1" pageWidth="850" pageHeight="1100" math="0" shadow="0">
      <root>
        <mxCell id="0" />
        <mxCell id="1" parent="0" />
        <mxCell id="i0PFO4XPD0DUhZGkGY-5-39" value="user presses &quot;Turn ON&quot; button&lt;br&gt;&amp;amp;&amp;amp;&lt;br&gt;after turnOnDuration ms" style="rounded=0;orthogonalLoop=1;jettySize=auto;html=1;" parent="1" source="i0PFO4XPD0DUhZGkGY-5-3" target="i0PFO4XPD0DUhZGkGY-5-6" edge="1">
          <mxGeometry relative="1" as="geometry">
            <mxPoint as="offset" />
            <Array as="points">
              <mxPoint x="280" y="-120" />
            </Array>
          </mxGeometry>
        </mxCell>
        <mxCell id="RPwFctXC23Z5WK-sjd0X-5" style="edgeStyle=orthogonalEdgeStyle;rounded=0;orthogonalLoop=1;jettySize=auto;html=1;entryX=0.5;entryY=0;entryDx=0;entryDy=0;" edge="1" parent="1" source="i0PFO4XPD0DUhZGkGY-5-3" target="RPwFctXC23Z5WK-sjd0X-1">
          <mxGeometry relative="1" as="geometry" />
        </mxCell>
        <mxCell id="i0PFO4XPD0DUhZGkGY-5-3" value="AED_OFF" style="rounded=1;whiteSpace=wrap;html=1;" parent="1" vertex="1">
          <mxGeometry x="360" y="-240" width="120" height="80" as="geometry" />
        </mxCell>
        <mxCell id="i0PFO4XPD0DUhZGkGY-5-40" value="" style="rounded=0;orthogonalLoop=1;jettySize=auto;html=1;" parent="1" source="i0PFO4XPD0DUhZGkGY-5-6" target="i0PFO4XPD0DUhZGkGY-5-8" edge="1">
          <mxGeometry relative="1" as="geometry" />
        </mxCell>
        <mxCell id="i0PFO4XPD0DUhZGkGY-5-41" value="after testDuration ms&lt;br&gt;&amp;amp;&amp;amp;&lt;br&gt;doesTestFail == false" style="edgeLabel;html=1;align=center;verticalAlign=middle;resizable=0;points=[];" parent="i0PFO4XPD0DUhZGkGY-5-40" vertex="1" connectable="0">
          <mxGeometry x="-0.28" y="1" relative="1" as="geometry">
            <mxPoint x="-1" y="8" as="offset" />
          </mxGeometry>
        </mxCell>
        <mxCell id="RST6yxN7UGok1e9Vg7jZ-1" style="edgeStyle=orthogonalEdgeStyle;rounded=0;orthogonalLoop=1;jettySize=auto;html=1;" parent="1" source="i0PFO4XPD0DUhZGkGY-5-6" target="i0PFO4XPD0DUhZGkGY-5-22" edge="1">
          <mxGeometry relative="1" as="geometry">
            <Array as="points">
              <mxPoint x="300" y="-40" />
              <mxPoint x="300" y="-40" />
            </Array>
          </mxGeometry>
        </mxCell>
        <mxCell id="RST6yxN7UGok1e9Vg7jZ-2" value="after testDuration&amp;nbsp;ms&lt;br&gt;&amp;amp;&amp;amp;&lt;br&gt;doesTestFail == true" style="edgeLabel;html=1;align=center;verticalAlign=middle;resizable=0;points=[];" parent="RST6yxN7UGok1e9Vg7jZ-1" vertex="1" connectable="0">
          <mxGeometry x="0.6709" y="1" relative="1" as="geometry">
            <mxPoint x="-61" y="1" as="offset" />
          </mxGeometry>
        </mxCell>
        <mxCell id="RPwFctXC23Z5WK-sjd0X-6" style="edgeStyle=orthogonalEdgeStyle;rounded=0;orthogonalLoop=1;jettySize=auto;html=1;entryX=1;entryY=0;entryDx=0;entryDy=0;" edge="1" parent="1" source="i0PFO4XPD0DUhZGkGY-5-6" target="RPwFctXC23Z5WK-sjd0X-1">
          <mxGeometry relative="1" as="geometry" />
        </mxCell>
        <mxCell id="i0PFO4XPD0DUhZGkGY-5-6" value="AED_ON" style="rounded=1;whiteSpace=wrap;html=1;" parent="1" vertex="1">
          <mxGeometry x="80" y="-80" width="120" height="80" as="geometry" />
        </mxCell>
        <mxCell id="i0PFO4XPD0DUhZGkGY-5-48" style="edgeStyle=orthogonalEdgeStyle;rounded=0;orthogonalLoop=1;jettySize=auto;html=1;" parent="1" source="i0PFO4XPD0DUhZGkGY-5-8" target="i0PFO4XPD0DUhZGkGY-5-11" edge="1">
          <mxGeometry relative="1" as="geometry" />
        </mxCell>
        <mxCell id="RST6yxN7UGok1e9Vg7jZ-3" value="after stepDuration" style="edgeLabel;html=1;align=center;verticalAlign=middle;resizable=0;points=[];" parent="i0PFO4XPD0DUhZGkGY-5-48" vertex="1" connectable="0">
          <mxGeometry x="-0.275" relative="1" as="geometry">
            <mxPoint as="offset" />
          </mxGeometry>
        </mxCell>
        <mxCell id="RST6yxN7UGok1e9Vg7jZ-17" style="edgeStyle=orthogonalEdgeStyle;rounded=0;orthogonalLoop=1;jettySize=auto;html=1;" parent="1" source="i0PFO4XPD0DUhZGkGY-5-8" target="RST6yxN7UGok1e9Vg7jZ-10" edge="1">
          <mxGeometry relative="1" as="geometry">
            <Array as="points">
              <mxPoint x="490" y="100" />
              <mxPoint x="490" y="240" />
            </Array>
          </mxGeometry>
        </mxCell>
        <mxCell id="RST6yxN7UGok1e9Vg7jZ-29" value="battery == 0" style="edgeLabel;html=1;align=center;verticalAlign=middle;resizable=0;points=[];fontSize=8;" parent="RST6yxN7UGok1e9Vg7jZ-17" vertex="1" connectable="0">
          <mxGeometry x="0.6369" y="1" relative="1" as="geometry">
            <mxPoint x="27" y="1" as="offset" />
          </mxGeometry>
        </mxCell>
        <mxCell id="i0PFO4XPD0DUhZGkGY-5-8" value="UNIT_OK" style="rounded=1;whiteSpace=wrap;html=1;" parent="1" vertex="1">
          <mxGeometry x="80" y="80" width="120" height="40" as="geometry" />
        </mxCell>
        <mxCell id="i0PFO4XPD0DUhZGkGY-5-50" value="" style="edgeStyle=orthogonalEdgeStyle;rounded=0;orthogonalLoop=1;jettySize=auto;html=1;" parent="1" source="i0PFO4XPD0DUhZGkGY-5-11" target="i0PFO4XPD0DUhZGkGY-5-13" edge="1">
          <mxGeometry relative="1" as="geometry" />
        </mxCell>
        <mxCell id="i0PFO4XPD0DUhZGkGY-5-51" value="after stepDuration" style="edgeLabel;html=1;align=center;verticalAlign=middle;resizable=0;points=[];" parent="i0PFO4XPD0DUhZGkGY-5-50" vertex="1" connectable="0">
          <mxGeometry x="-0.075" relative="1" as="geometry">
            <mxPoint as="offset" />
          </mxGeometry>
        </mxCell>
        <mxCell id="RST6yxN7UGok1e9Vg7jZ-18" style="edgeStyle=orthogonalEdgeStyle;rounded=0;orthogonalLoop=1;jettySize=auto;html=1;" parent="1" source="i0PFO4XPD0DUhZGkGY-5-11" target="RST6yxN7UGok1e9Vg7jZ-10" edge="1">
          <mxGeometry relative="1" as="geometry">
            <Array as="points">
              <mxPoint x="480" y="180" />
              <mxPoint x="480" y="250" />
            </Array>
          </mxGeometry>
        </mxCell>
        <mxCell id="RST6yxN7UGok1e9Vg7jZ-30" value="battery == 0" style="edgeLabel;html=1;align=center;verticalAlign=middle;resizable=0;points=[];fontSize=8;" parent="RST6yxN7UGok1e9Vg7jZ-18" vertex="1" connectable="0">
          <mxGeometry x="0.5582" y="-1" relative="1" as="geometry">
            <mxPoint x="27" y="2" as="offset" />
          </mxGeometry>
        </mxCell>
        <mxCell id="i0PFO4XPD0DUhZGkGY-5-11" value="CHECK_RESPONSIVENESS" style="rounded=1;whiteSpace=wrap;html=1;" parent="1" vertex="1">
          <mxGeometry x="45" y="160" width="190" height="40" as="geometry" />
        </mxCell>
        <mxCell id="i0PFO4XPD0DUhZGkGY-5-52" value="" style="edgeStyle=orthogonalEdgeStyle;rounded=0;orthogonalLoop=1;jettySize=auto;html=1;" parent="1" source="i0PFO4XPD0DUhZGkGY-5-13" target="i0PFO4XPD0DUhZGkGY-5-15" edge="1">
          <mxGeometry relative="1" as="geometry" />
        </mxCell>
        <mxCell id="i0PFO4XPD0DUhZGkGY-5-53" value="after stepDuration" style="edgeLabel;html=1;align=center;verticalAlign=middle;resizable=0;points=[];" parent="i0PFO4XPD0DUhZGkGY-5-52" vertex="1" connectable="0">
          <mxGeometry y="4" relative="1" as="geometry">
            <mxPoint as="offset" />
          </mxGeometry>
        </mxCell>
        <mxCell id="RST6yxN7UGok1e9Vg7jZ-19" style="edgeStyle=orthogonalEdgeStyle;rounded=0;orthogonalLoop=1;jettySize=auto;html=1;" parent="1" source="i0PFO4XPD0DUhZGkGY-5-13" target="RST6yxN7UGok1e9Vg7jZ-10" edge="1">
          <mxGeometry relative="1" as="geometry">
            <Array as="points">
              <mxPoint x="600" y="260" />
              <mxPoint x="600" y="260" />
            </Array>
          </mxGeometry>
        </mxCell>
        <mxCell id="RST6yxN7UGok1e9Vg7jZ-32" value="battery == 0" style="edgeLabel;html=1;align=center;verticalAlign=middle;resizable=0;points=[];fontSize=8;" parent="RST6yxN7UGok1e9Vg7jZ-19" vertex="1" connectable="0">
          <mxGeometry x="0.5348" relative="1" as="geometry">
            <mxPoint x="22" as="offset" />
          </mxGeometry>
        </mxCell>
        <mxCell id="i0PFO4XPD0DUhZGkGY-5-13" value="CALL_HELP" style="rounded=1;whiteSpace=wrap;html=1;" parent="1" vertex="1">
          <mxGeometry x="80" y="240" width="120" height="40" as="geometry" />
        </mxCell>
        <mxCell id="i0PFO4XPD0DUhZGkGY-5-54" value="if connection == GOOD&lt;br&gt;&amp;amp;&amp;amp;&lt;br&gt;after stepDuration" style="edgeStyle=orthogonalEdgeStyle;rounded=0;orthogonalLoop=1;jettySize=auto;html=1;" parent="1" source="i0PFO4XPD0DUhZGkGY-5-15" target="i0PFO4XPD0DUhZGkGY-5-17" edge="1">
          <mxGeometry relative="1" as="geometry" />
        </mxCell>
        <mxCell id="RST6yxN7UGok1e9Vg7jZ-20" style="edgeStyle=orthogonalEdgeStyle;rounded=0;orthogonalLoop=1;jettySize=auto;html=1;" parent="1" source="i0PFO4XPD0DUhZGkGY-5-15" target="RST6yxN7UGok1e9Vg7jZ-10" edge="1">
          <mxGeometry relative="1" as="geometry">
            <Array as="points">
              <mxPoint x="480" y="340" />
              <mxPoint x="480" y="280" />
            </Array>
          </mxGeometry>
        </mxCell>
        <mxCell id="RST6yxN7UGok1e9Vg7jZ-33" value="battery == 0" style="edgeLabel;html=1;align=center;verticalAlign=middle;resizable=0;points=[];fontSize=8;" parent="RST6yxN7UGok1e9Vg7jZ-20" vertex="1" connectable="0">
          <mxGeometry x="0.5858" y="1" relative="1" as="geometry">
            <mxPoint x="27" y="1" as="offset" />
          </mxGeometry>
        </mxCell>
        <mxCell id="i0PFO4XPD0DUhZGkGY-5-15" value="ATTACH_PADS" style="rounded=1;whiteSpace=wrap;html=1;" parent="1" vertex="1">
          <mxGeometry x="80" y="320" width="120" height="40" as="geometry" />
        </mxCell>
        <mxCell id="RST6yxN7UGok1e9Vg7jZ-8" value="" style="edgeStyle=orthogonalEdgeStyle;rounded=0;orthogonalLoop=1;jettySize=auto;html=1;" parent="1" source="i0PFO4XPD0DUhZGkGY-5-17" target="i0PFO4XPD0DUhZGkGY-5-18" edge="1">
          <mxGeometry relative="1" as="geometry">
            <Array as="points">
              <mxPoint x="100" y="500" />
              <mxPoint x="60" y="500" />
            </Array>
          </mxGeometry>
        </mxCell>
        <mxCell id="RST6yxN7UGok1e9Vg7jZ-11" value="if Patient::cprAble() == true" style="edgeLabel;html=1;align=center;verticalAlign=middle;resizable=0;points=[];" parent="RST6yxN7UGok1e9Vg7jZ-8" vertex="1" connectable="0">
          <mxGeometry x="-0.0071" y="-1" relative="1" as="geometry">
            <mxPoint x="-10" y="21" as="offset" />
          </mxGeometry>
        </mxCell>
        <mxCell id="RST6yxN7UGok1e9Vg7jZ-12" style="edgeStyle=orthogonalEdgeStyle;rounded=0;orthogonalLoop=1;jettySize=auto;html=1;" parent="1" source="i0PFO4XPD0DUhZGkGY-5-17" target="RST6yxN7UGok1e9Vg7jZ-9" edge="1">
          <mxGeometry relative="1" as="geometry">
            <Array as="points">
              <mxPoint x="180" y="500" />
              <mxPoint x="220" y="500" />
            </Array>
          </mxGeometry>
        </mxCell>
        <mxCell id="RST6yxN7UGok1e9Vg7jZ-13" value="if Patient::cprAble() == false" style="edgeLabel;html=1;align=center;verticalAlign=middle;resizable=0;points=[];" parent="RST6yxN7UGok1e9Vg7jZ-12" vertex="1" connectable="0">
          <mxGeometry x="0.5574" y="-1" relative="1" as="geometry">
            <mxPoint x="1" y="-3" as="offset" />
          </mxGeometry>
        </mxCell>
        <mxCell id="RST6yxN7UGok1e9Vg7jZ-21" style="edgeStyle=orthogonalEdgeStyle;rounded=0;orthogonalLoop=1;jettySize=auto;html=1;" parent="1" source="i0PFO4XPD0DUhZGkGY-5-17" target="RST6yxN7UGok1e9Vg7jZ-10" edge="1">
          <mxGeometry relative="1" as="geometry">
            <Array as="points">
              <mxPoint x="490" y="460" />
              <mxPoint x="490" y="290" />
            </Array>
          </mxGeometry>
        </mxCell>
        <mxCell id="RST6yxN7UGok1e9Vg7jZ-34" value="battery == 0" style="edgeLabel;html=1;align=center;verticalAlign=middle;resizable=0;points=[];fontSize=8;" parent="RST6yxN7UGok1e9Vg7jZ-21" vertex="1" connectable="0">
          <mxGeometry x="0.6406" y="1" relative="1" as="geometry">
            <mxPoint x="27" y="2" as="offset" />
          </mxGeometry>
        </mxCell>
        <mxCell id="RPwFctXC23Z5WK-sjd0X-4" style="edgeStyle=orthogonalEdgeStyle;rounded=0;orthogonalLoop=1;jettySize=auto;html=1;entryX=1;entryY=0.5;entryDx=0;entryDy=0;" edge="1" parent="1" source="i0PFO4XPD0DUhZGkGY-5-17" target="RPwFctXC23Z5WK-sjd0X-1">
          <mxGeometry relative="1" as="geometry">
            <Array as="points">
              <mxPoint x="-120" y="460" />
              <mxPoint x="-120" y="525" />
            </Array>
          </mxGeometry>
        </mxCell>
        <mxCell id="i0PFO4XPD0DUhZGkGY-5-17" value="DONT_TOUCH_PATIENT" style="rounded=1;whiteSpace=wrap;html=1;" parent="1" vertex="1">
          <mxGeometry x="60" y="440" width="160" height="40" as="geometry" />
        </mxCell>
        <mxCell id="RST6yxN7UGok1e9Vg7jZ-23" style="edgeStyle=orthogonalEdgeStyle;rounded=0;orthogonalLoop=1;jettySize=auto;html=1;" parent="1" source="i0PFO4XPD0DUhZGkGY-5-18" target="RST6yxN7UGok1e9Vg7jZ-10" edge="1">
          <mxGeometry relative="1" as="geometry">
            <Array as="points">
              <mxPoint x="70" y="600" />
              <mxPoint x="510" y="600" />
              <mxPoint x="510" y="310" />
            </Array>
          </mxGeometry>
        </mxCell>
        <mxCell id="RST6yxN7UGok1e9Vg7jZ-36" value="battery == 0" style="edgeLabel;html=1;align=center;verticalAlign=middle;resizable=0;points=[];fontSize=8;" parent="RST6yxN7UGok1e9Vg7jZ-23" vertex="1" connectable="0">
          <mxGeometry x="0.7627" y="2" relative="1" as="geometry">
            <mxPoint x="27" y="2" as="offset" />
          </mxGeometry>
        </mxCell>
        <mxCell id="RPwFctXC23Z5WK-sjd0X-2" style="edgeStyle=orthogonalEdgeStyle;rounded=0;orthogonalLoop=1;jettySize=auto;html=1;entryX=0.5;entryY=1;entryDx=0;entryDy=0;" edge="1" parent="1" source="i0PFO4XPD0DUhZGkGY-5-18" target="RPwFctXC23Z5WK-sjd0X-1">
          <mxGeometry relative="1" as="geometry">
            <Array as="points">
              <mxPoint x="50" y="600" />
              <mxPoint x="-225" y="600" />
            </Array>
          </mxGeometry>
        </mxCell>
        <mxCell id="i0PFO4XPD0DUhZGkGY-5-18" value="START_CPR" style="rounded=1;whiteSpace=wrap;html=1;" parent="1" vertex="1">
          <mxGeometry y="540" width="120" height="40" as="geometry" />
        </mxCell>
        <mxCell id="RST6yxN7UGok1e9Vg7jZ-6" style="edgeStyle=orthogonalEdgeStyle;rounded=0;orthogonalLoop=1;jettySize=auto;html=1;" parent="1" source="i0PFO4XPD0DUhZGkGY-5-22" target="i0PFO4XPD0DUhZGkGY-5-3" edge="1">
          <mxGeometry relative="1" as="geometry" />
        </mxCell>
        <mxCell id="RST6yxN7UGok1e9Vg7jZ-7" value="user presses &quot;Turn OFF&quot; button" style="edgeLabel;html=1;align=center;verticalAlign=middle;resizable=0;points=[];" parent="RST6yxN7UGok1e9Vg7jZ-6" vertex="1" connectable="0">
          <mxGeometry x="-0.4468" y="3" relative="1" as="geometry">
            <mxPoint x="3" y="-18" as="offset" />
          </mxGeometry>
        </mxCell>
        <mxCell id="RST6yxN7UGok1e9Vg7jZ-14" style="edgeStyle=orthogonalEdgeStyle;rounded=0;orthogonalLoop=1;jettySize=auto;html=1;" parent="1" source="i0PFO4XPD0DUhZGkGY-5-22" target="RST6yxN7UGok1e9Vg7jZ-10" edge="1">
          <mxGeometry relative="1" as="geometry">
            <Array as="points">
              <mxPoint x="500" y="-40" />
              <mxPoint x="500" y="230" />
            </Array>
          </mxGeometry>
        </mxCell>
        <mxCell id="RST6yxN7UGok1e9Vg7jZ-28" value="battery == 0" style="edgeLabel;html=1;align=center;verticalAlign=middle;resizable=0;points=[];fontSize=8;" parent="RST6yxN7UGok1e9Vg7jZ-14" vertex="1" connectable="0">
          <mxGeometry x="0.6779" y="2" relative="1" as="geometry">
            <mxPoint x="-11" y="2" as="offset" />
          </mxGeometry>
        </mxCell>
        <mxCell id="i0PFO4XPD0DUhZGkGY-5-22" value="AED_TEST_FAIL" style="rounded=1;whiteSpace=wrap;html=1;" parent="1" vertex="1">
          <mxGeometry x="360" y="-80" width="120" height="80" as="geometry" />
        </mxCell>
        <mxCell id="RST6yxN7UGok1e9Vg7jZ-22" style="edgeStyle=orthogonalEdgeStyle;rounded=0;orthogonalLoop=1;jettySize=auto;html=1;" parent="1" source="RST6yxN7UGok1e9Vg7jZ-9" target="RST6yxN7UGok1e9Vg7jZ-10" edge="1">
          <mxGeometry relative="1" as="geometry">
            <Array as="points">
              <mxPoint x="230" y="590" />
              <mxPoint x="500" y="590" />
              <mxPoint x="500" y="300" />
            </Array>
          </mxGeometry>
        </mxCell>
        <mxCell id="RST6yxN7UGok1e9Vg7jZ-35" value="battery == 0" style="edgeLabel;html=1;align=center;verticalAlign=middle;resizable=0;points=[];fontSize=8;" parent="RST6yxN7UGok1e9Vg7jZ-22" vertex="1" connectable="0">
          <mxGeometry x="0.714" y="1" relative="1" as="geometry">
            <mxPoint x="23" y="2" as="offset" />
          </mxGeometry>
        </mxCell>
        <mxCell id="RPwFctXC23Z5WK-sjd0X-3" style="edgeStyle=orthogonalEdgeStyle;rounded=0;orthogonalLoop=1;jettySize=auto;html=1;entryX=1;entryY=1;entryDx=0;entryDy=0;" edge="1" parent="1" source="RST6yxN7UGok1e9Vg7jZ-9" target="RPwFctXC23Z5WK-sjd0X-1">
          <mxGeometry relative="1" as="geometry">
            <Array as="points">
              <mxPoint x="210" y="590" />
              <mxPoint x="-120" y="590" />
              <mxPoint x="-120" y="536" />
            </Array>
          </mxGeometry>
        </mxCell>
        <mxCell id="RST6yxN7UGok1e9Vg7jZ-9" value="SHOCK_ADVISED" style="rounded=1;whiteSpace=wrap;html=1;" parent="1" vertex="1">
          <mxGeometry x="160" y="540" width="120" height="40" as="geometry" />
        </mxCell>
        <mxCell id="RST6yxN7UGok1e9Vg7jZ-26" style="edgeStyle=orthogonalEdgeStyle;rounded=0;orthogonalLoop=1;jettySize=auto;html=1;" parent="1" source="RST6yxN7UGok1e9Vg7jZ-10" target="i0PFO4XPD0DUhZGkGY-5-6" edge="1">
          <mxGeometry relative="1" as="geometry">
            <Array as="points">
              <mxPoint x="700" y="-250" />
              <mxPoint x="140" y="-250" />
            </Array>
          </mxGeometry>
        </mxCell>
        <mxCell id="RST6yxN7UGok1e9Vg7jZ-27" value="battery &amp;gt; 0" style="edgeLabel;html=1;align=center;verticalAlign=middle;resizable=0;points=[];" parent="RST6yxN7UGok1e9Vg7jZ-26" vertex="1" connectable="0">
          <mxGeometry x="-0.9455" y="2" relative="1" as="geometry">
            <mxPoint as="offset" />
          </mxGeometry>
        </mxCell>
        <mxCell id="RST6yxN7UGok1e9Vg7jZ-10" value="CHANGE_BATTERY" style="rounded=1;whiteSpace=wrap;html=1;" parent="1" vertex="1">
          <mxGeometry x="640" y="210" width="120" height="120" as="geometry" />
        </mxCell>
        <mxCell id="UD2MaKXoZ5y9cSSxMdvY-4" value="" style="ellipse;html=1;shape=startState;fillColor=#000000;strokeColor=#ff0000;" parent="1" vertex="1">
          <mxGeometry x="380" y="-330" width="30" height="30" as="geometry" />
        </mxCell>
        <mxCell id="UD2MaKXoZ5y9cSSxMdvY-5" value="" style="edgeStyle=orthogonalEdgeStyle;html=1;verticalAlign=bottom;endArrow=open;endSize=8;strokeColor=#ff0000;rounded=0;" parent="1" source="UD2MaKXoZ5y9cSSxMdvY-4" edge="1">
          <mxGeometry relative="1" as="geometry">
            <mxPoint x="395" y="-240" as="targetPoint" />
          </mxGeometry>
        </mxCell>
        <mxCell id="UD2MaKXoZ5y9cSSxMdvY-6" value="on program startup" style="edgeLabel;html=1;align=center;verticalAlign=middle;resizable=0;points=[];" parent="UD2MaKXoZ5y9cSSxMdvY-5" vertex="1" connectable="0">
          <mxGeometry x="-0.3554" relative="1" as="geometry">
            <mxPoint as="offset" />
          </mxGeometry>
        </mxCell>
        <mxCell id="RPwFctXC23Z5WK-sjd0X-1" value="" style="ellipse;html=1;shape=endState;fillColor=#000000;strokeColor=#ff0000;" vertex="1" parent="1">
          <mxGeometry x="-240" y="510" width="30" height="30" as="geometry" />
        </mxCell>
      </root>
    </mxGraphModel>
  </diagram>
</mxfile>
